<svg xmlns="http://www.w3.org/2000/svg" xmlns:xlink="http://www.w3.org/1999/xlink" viewBox="0,0,255.99942,255.99942" width="32px" height="32px" fill-rule="nonzero"><g fill="#339af0" fill-rule="nonzero" stroke="none" stroke-width="1" stroke-linecap="butt" stroke-linejoin="miter" stroke-miterlimit="10" stroke-dasharray="" stroke-dashoffset="0" font-family="none" font-weight="none" font-size="none" text-anchor="none" style="mix-blend-mode: normal"><g transform="scale(8,8)"><path d="M5,5v22h22v-22zM19.49609,8.64844c1.16016,0 2.10156,0.94141 2.10156,2.10156c0,1.16016 -0.94141,2.10156 -2.10156,2.10156c-1.15625,0 -2.09766,-0.94141 -2.09766,-2.10156c0,-1.16016 0.94141,-2.10156 2.09766,-2.10156zM14.94922,8.64844c0.96875,0 1.75,0.78516 1.75,1.75c0,0.96875 -0.78125,1.75 -1.75,1.75c-0.96484,0 -1.75,-0.78125 -1.75,-1.75c0,-0.96484 0.78516,-1.75 1.75,-1.75zM11.10156,9.35156c0.76953,0 1.39844,0.625 1.39844,1.39844c0,0.77344 -0.62891,1.39844 -1.39844,1.39844c-0.77344,0 -1.40234,-0.625 -1.40234,-1.39844c0,-0.77344 0.62891,-1.39844 1.40234,-1.39844zM16.00781,23.35156v-2.80078h-3.49609v-2.10156h-3.51172c0,0 0,-3.41797 0,-3.64453c0,-0.35937 0.39453,-1.95312 2.10156,-1.95312c1.20313,0 1.73828,1.01953 1.84766,1.40625c0.53125,-0.50391 1.14844,-0.78516 1.98438,-0.78516c0.83594,0 1.77734,0.62891 2.23047,1.41406c0.48438,-0.36719 1.09375,-0.83984 2.58984,-0.83984c2.17188,0 3.24609,1.99609 3.24609,3.14063c0,1.03906 0,6.16406 0,6.16406c-2.32812,0 -6.99219,0 -6.99219,0z"></path></g></g></svg>