<?xml version="1.0" encoding="iso-8859-1"?>
<!-- Uploaded to: SVG Repo, www.svgrepo.com, Generator: SVG Repo Mixer Tools -->
<svg height="800px" width="800px" version="1.1" id="Layer_1" xmlns="http://www.w3.org/2000/svg" xmlns:xlink="http://www.w3.org/1999/xlink" 
	 viewBox="0 0 512 512" xml:space="preserve">
<path style="fill:#FFFFFF;" d="M465.673,421.161H46.327c-21.025,0-38.069-17.044-38.069-38.069V128.907
	c0-21.025,17.044-38.069,38.069-38.069h419.347c21.025,0,38.069,17.044,38.069,38.069v254.185
	C503.742,404.118,486.698,421.161,465.673,421.161z"/>
<polygon style="fill:#ED1F34;" points="503.742,232.052 279.948,232.052 279.948,90.839 232.052,90.839 232.052,232.052 
	8.258,232.052 8.258,279.948 232.052,279.948 232.052,421.161 279.948,421.161 279.948,279.948 503.742,279.948 "/>
<path style="fill:#1A1C20;" d="M468.324,82.581H43.676C19.593,82.581,0,102.174,0,126.257v259.486
	c0,24.083,19.593,43.676,43.676,43.676h424.648c24.083,0,43.675-19.594,43.675-43.676V126.257
	C512,102.174,492.407,82.581,468.324,82.581z M495.484,126.257v97.537H288.206V99.097h180.117
	C483.3,99.097,495.484,111.28,495.484,126.257z M43.676,99.097h180.117v124.697H16.516v-97.537
	C16.516,111.28,28.7,99.097,43.676,99.097z M16.516,385.743v-97.537h207.277v124.697H43.676
	C28.7,412.903,16.516,400.72,16.516,385.743z M468.324,412.903H288.206V288.206h149.471c4.561,0,8.258-3.696,8.258-8.258
	s-3.697-8.258-8.258-8.258H279.948c-4.561,0-8.258,3.696-8.258,8.258v132.955H240.31V279.948c0-4.562-3.697-8.258-8.258-8.258
	H16.516V240.31h215.535c4.561,0,8.258-3.696,8.258-8.258V99.097h31.381v132.955c0,4.562,3.697,8.258,8.258,8.258h215.535v31.381
	H470.71c-4.561,0-8.258,3.696-8.258,8.258s3.697,8.258,8.258,8.258h24.774v97.537C495.484,400.72,483.3,412.903,468.324,412.903z"/>
</svg>