<svg width="24" height="24" viewBox="0 0 24 24" xmlns="http://www.w3.org/2000/svg"><path d="M15.25 21h-8.5a.75.75 0 0 1-.102-1.493l.102-.007H8v-1.496H4.25a2.25 2.25 0 0 1-2.245-2.095L2 15.755V8.25a2.25 2.25 0 0 1 2.096-2.245L4.25 6h6.498a.75.75 0 0 1 .102 1.493l-.102.007H4.25a.75.75 0 0 0-.743.648L3.5 8.25v7.505c0 .38.282.693.648.743l.102.007H8V16.5h5.995v.004h3.75a.75.75 0 0 0 .744-.648l.006-.101v-.504a.75.75 0 0 1 1.494-.102l.006.102v.504a2.25 2.25 0 0 1-2.096 2.244l-.154.006h-3.75v1.494l1.255.001a.75.75 0 0 1 .743.648l.007.102a.75.75 0 0 1-.648.743L15.25 21h-8.5 8.5Zm-2.755-2.996H9.5V19.5h2.995v-1.496Zm1.253-14.003h7.554l.1.015.1.028.057.024a.72.72 0 0 1 .22.152l.042.044.06.081.037.065.039.09.02.065.013.064.01.094v7.532a.75.75 0 0 1-1.494.102l-.006-.102-.001-5.695-7.719 7.72a.75.75 0 0 1-.976.073l-.084-.072a.75.75 0 0 1-.073-.977l.073-.084 7.717-7.72h-5.689a.75.75 0 0 1-.743-.648l-.007-.102a.75.75 0 0 1 .648-.743L13.748 4Z" fill="#212121"/></svg>