<svg xmlns="http://www.w3.org/2000/svg"  viewBox="0 0 512 512" width="64px" height="64px"><path fill="#3CB881" d="M7.9,256C7.9,119,119,7.9,256,7.9C393,7.9,504.1,119,504.1,256c0,137-111.1,248.1-248.1,248.1C119,504.1,7.9,393,7.9,256z"/><path fill="#CC3432" d="M292 414.7l-35.2-25 80.2 57c.7.5 1.6.8 2.5.8.7 0 1.4-.2 2-.5 1.4-.7 2.4-2.2 2.4-3.9L344 24c-16.6-6.3-33.9-10.9-52-13.5V414.7zM172.1 447.1c1.4.8 3.2.6 4.5-.3l43.6-31V10.5c-17.5 2.5-34.4 6.9-50.5 12.8v419.9C169.7 444.8 170.7 446.3 172.1 447.1z"/><path fill="#B42928" d="M220.2 415.8L256.9 389.7 220.2 415.8zM292 10.6c-11.8-1.7-23.8-2.6-36-2.6-12.2 0-24.1.9-35.8 2.6v405.3l36.7-26.1 35.2 25V10.6z"/><g><path fill="#DDA027" d="M320.7,222.6c-0.4-1.1-1.3-1.9-2.4-2.1l-40.5-5.9l-18.1-36.8c-1-2-4.4-2-5.4,0L236,214.7l-40.5,5.9c-1.1,0.2-2.1,1-2.4,2c-0.4,1.1-0.1,2.3,0.8,3.1l29.4,28.6l-6.9,40.4c-0.2,1.1,0.3,2.3,1.2,3c0.9,0.7,2.2,0.8,3.2,0.2l36.3-19.1l36.3,19.1c0.4,0.2,0.9,0.3,1.4,0.3c0.6,0,1.2-0.2,1.8-0.6c0.9-0.7,1.4-1.8,1.2-2.9l-6.9-40.4l29.3-28.6C320.8,224.9,321,223.7,320.7,222.6z"/></g></svg>